<svg width="64" height="64" viewBox="0 0 64 64" fill="none" xmlns="http://www.w3.org/2000/svg">
  <rect width="64" height="64" rx="18" fill="#0d120d"/>
  <path d="M34.9 9.8c5.2 8.9-1 12.4 4.8 19 2.2-4.3 7-7 10.3-7.5-1.2 9.8 5.2 12.2 5.2 22.1 0 10.1-8.3 17.1-21.5 17.1-12.1 0-22-6.5-22-17 0-9.4 6.7-15.2 9.9-20.1 1.8 5.7 5.3 7.8 9.2 8.2-4.3-8.8.8-16.2 4.1-21.8Z" fill="#fbbf24"/>
  <path d="M32.4 55.4c-5 0-8.9-3-8.9-7.7 0-4.2 3.3-6.9 5.1-9.9 1.2 3.4 3.1 4.8 5.3 5-1.4-4.4 1.1-8 3.2-11.1 2.7 5.1-.5 7.5 3.3 11.1 1.1-2.1 3.4-3.6 5.4-3.8-.5 5.2 2.5 6.6 2.5 11.1 0 5.1-4.4 8.3-15.9 5.3Z" fill="#fff7ed" fill-opacity=".85"/>
</svg>
